<svg xmlns="http://www.w3.org/2000/svg" xmlns:xlink="http://www.w3.org/1999/xlink" width="100" height="100" viewBox="0 0 100 100"><rect width="100%" height="100%" fill="#ffffff"></rect><g transform="translate(50 50) scale(0.69 0.69) rotate(0) translate(-50 -50)" style="fill:#ffffff"><svg fill="#ffffff" xmlns="http://www.w3.org/2000/svg" xmlns:xlink="http://www.w3.org/1999/xlink" version="1.1" x="0px" y="0px" viewBox="0 0 100 70.774" enable-background="new 0 0 100 70.774" xml:space="preserve"><path fill="#ffffff" d="M99.629,41.784c-0.625-1.602-1.947-2.811-3.742-3.537c-0.043-1.197-0.42-2.396-1.193-3.467  c-1.581-2.194-4.364-3.556-7.266-3.556h-2.369c-0.825-3.301-3.564-6.245-8.038-6.245c-0.401,0-1.399-0.098-2.78-0.226  c-9.308-0.854-18.526-1.398-22.975,0.374c-1.461,0.588-3.014,1.454-4.811,2.458c-4.563,2.549-10.243,5.72-17.312,5.72H0v4.164  h29.143c8.151,0,14.618-3.612,19.34-6.249c1.673-0.933,3.117-1.74,4.329-2.226c4.126-1.651,15.983-0.56,21.047-0.094  c1.78,0.163,2.659,0.242,3.161,0.242c1.978,0,3.068,0.985,3.637,2.082H64.53c-1.15,0-2.082,0.931-2.082,2.081  c0,1.151,0.932,2.082,2.082,2.082h22.897c1.562,0,3.089,0.717,3.889,1.826c0.056,0.075,0.108,0.167,0.16,0.256H66.612  c-1.15,0-2.082,0.931-2.082,2.082s0.932,2.082,2.082,2.082h24.979c2.593,0,3.859,0.895,4.158,1.662  c0.165,0.432,0.087,0.952-0.19,1.512c-1.041-0.673-2.361-1.094-3.968-1.094H68.692c-1.149,0-2.08,0.932-2.08,2.082  c0,1.151,0.931,2.082,2.08,2.082h22.898c1.92,0,2.603,1.075,2.603,2.081c0,0.535-0.199,1.029-0.561,1.392  c-0.454,0.45-1.159,0.691-2.042,0.691H68.692c-2.443,0-12.808,2.504-12.808,7.513c0,2.755,3.067,2.776,7.711,2.812  c1.105,0.008,2.143,0.011,2.825,0.074c0.592,0.056,1.228-0.073,2.299-0.275c1.938-0.372,5.979-1.143,7.539,0.146  c0.136,0.114,0.478,0.397,0.653,1.153c-2.772,1.099-10.861,3.133-12.382,3.146c-7.445,0-13.329-0.698-15.744-1.871  c-4.21-2.046-18.458-6.196-19.062-6.371c-0.195-0.057-0.388-0.049-0.581-0.049v-0.034H0v4.163h28.846  c1.977,0.582,14.519,4.287,18.123,6.035c4.103,1.995,12.765,2.291,17.562,2.291c0.167,0,16.653-2.338,16.653-6.244  c0-2.354-0.764-4.181-2.272-5.426c-3.072-2.544-8.021-1.598-10.974-1.03c-0.552,0.105-0.991,0.2-1.137,0.22  c-0.767-0.071-1.93-0.082-3.175-0.093c-0.432-0.003-0.979-0.005-1.547-0.019c2.005-1.015,4.959-1.979,6.613-1.979h22.898  c4.442,0,6.765-3.14,6.765-6.245c0-0.528-0.091-1.053-0.225-1.567C99.886,46.301,100.452,43.908,99.629,41.784z"></path><path fill="#ffffff" d="M20.814,29.143c-0.435,0-0.872-0.136-1.246-0.417c-0.921-0.689-1.108-1.995-0.417-2.913  c2.38-3.176,6.023-4.997,9.992-4.997c3.962,0,7.601,1.816,9.985,4.984c0.691,0.918,0.508,2.224-0.411,2.915  c-0.92,0.695-2.224,0.508-2.915-0.41c-1.592-2.115-4.019-3.326-6.66-3.326c-2.647,0-5.074,1.213-6.662,3.33  C22.073,28.856,21.449,29.143,20.814,29.143z"></path><path fill="#ffffff" d="M45.798,22.897c-0.632,0-1.258-0.287-1.667-0.832c-3.578-4.763-9.042-7.495-14.992-7.495  c-5.948,0-11.41,2.732-14.988,7.495c-0.689,0.921-1.998,1.102-2.915,0.415c-0.918-0.691-1.104-1.997-0.415-2.916  c4.373-5.82,11.051-9.158,18.322-9.158c7.269,0,13.945,3.338,18.318,9.158c0.689,0.919,0.504,2.225-0.415,2.916  C46.672,22.761,46.233,22.897,45.798,22.897z"></path><path fill="#ffffff" d="M54.124,16.651c-0.632,0-1.257-0.287-1.666-0.832C46.892,8.412,38.393,4.163,29.139,4.163  c-9.249,0-17.748,4.249-23.314,11.656c-0.693,0.919-1.996,1.102-2.915,0.415c-0.919-0.691-1.104-1.996-0.415-2.915  C8.855,4.854,18.568,0,29.143,0c10.57,0,20.284,4.854,26.644,13.319c0.689,0.919,0.504,2.224-0.415,2.915  C54.999,16.515,54.56,16.651,54.124,16.651z"></path><path fill="#ffffff" d="M29.143,66.61c-2.299,0-4.164-1.863-4.164-4.162V33.305c0-2.299,1.865-4.163,4.164-4.163  s4.163,1.864,4.163,4.163v29.143C33.306,64.747,31.442,66.61,29.143,66.61z"></path></svg></g></svg>